<svg id="mermaid-svg" width="100%" xmlns="http://www.w3.org/2000/svg" height="311"
     style="max-width: 355.25px;" viewBox="-20 -20 355.25 311"><style>#mermaid-svg{font-family:"trebuchet ms",verdana,arial,sans-serif;font-size:16px;fill:#333;}#mermaid-svg .error-icon{fill:#552222;}#mermaid-svg .error-text{fill:#552222;stroke:#552222;}#mermaid-svg .edge-thickness-normal{stroke-width:2px;}#mermaid-svg .edge-thickness-thick{stroke-width:3.5px;}#mermaid-svg .edge-pattern-solid{stroke-dasharray:0;}#mermaid-svg .edge-pattern-dashed{stroke-dasharray:3;}#mermaid-svg .edge-pattern-dotted{stroke-dasharray:2;}#mermaid-svg .marker{fill:#333333;stroke:#333333;}#mermaid-svg .marker.cross{stroke:#333333;}#mermaid-svg svg{font-family:"trebuchet ms",verdana,arial,sans-serif;font-size:16px;}#mermaid-svg g.classGroup text{fill:#9370DB;fill:#131300;stroke:none;font-family:"trebuchet ms",verdana,arial,sans-serif;font-size:10px;}#mermaid-svg g.classGroup text .title{font-weight:bolder;}#mermaid-svg .classTitle{font-weight:bolder;}#mermaid-svg .node rect,#mermaid-svg .node circle,#mermaid-svg .node ellipse,#mermaid-svg .node polygon,#mermaid-svg .node path{fill:#ECECFF;stroke:#9370DB;stroke-width:1px;}#mermaid-svg .divider{stroke:#9370DB;stroke:1;}#mermaid-svg g.clickable{cursor:pointer;}#mermaid-svg g.classGroup rect{fill:#ECECFF;stroke:#9370DB;}#mermaid-svg g.classGroup line{stroke:#9370DB;stroke-width:1;}#mermaid-svg .classLabel .box{stroke:none;stroke-width:0;fill:#ECECFF;opacity:0.5;}#mermaid-svg .classLabel .label{fill:#9370DB;font-size:10px;}#mermaid-svg .relation{stroke:#333333;stroke-width:1;fill:none;}#mermaid-svg .dashed-line{stroke-dasharray:3;}#mermaid-svg #compositionStart,#mermaid-svg .composition{fill:#333333 !important;stroke:#333333 !important;stroke-width:1;}#mermaid-svg #compositionEnd,#mermaid-svg .composition{fill:#333333 !important;stroke:#333333 !important;stroke-width:1;}#mermaid-svg #dependencyStart,#mermaid-svg .dependency{fill:#333333 !important;stroke:#333333 !important;stroke-width:1;}#mermaid-svg #dependencyStart,#mermaid-svg .dependency{fill:#333333 !important;stroke:#333333 !important;stroke-width:1;}#mermaid-svg #extensionStart,#mermaid-svg .extension{fill:#333333 !important;stroke:#333333 !important;stroke-width:1;}#mermaid-svg #extensionEnd,#mermaid-svg .extension{fill:#333333 !important;stroke:#333333 !important;stroke-width:1;}#mermaid-svg #aggregationStart,#mermaid-svg .aggregation{fill:#ECECFF !important;stroke:#333333 !important;stroke-width:1;}#mermaid-svg #aggregationEnd,#mermaid-svg .aggregation{fill:#ECECFF !important;stroke:#333333 !important;stroke-width:1;}#mermaid-svg .edgeTerminals{font-size:11px;}#mermaid-svg:root{--mermaid-font-family:"trebuchet ms",verdana,arial,sans-serif;}</style><g></g><defs><marker id="extensionStart" class="extension" refX="0" refY="7" markerWidth="190" markerHeight="240" orient="auto"><path d="M 1,7 L18,13 V 1 Z"></path></marker></defs><defs><marker id="extensionEnd" refX="19" refY="7" markerWidth="20" markerHeight="28" orient="auto"><path d="M 1,1 V 13 L18,7 Z"></path></marker></defs><defs><marker id="compositionStart" class="extension" refX="0" refY="7" markerWidth="190" markerHeight="240" orient="auto"><path d="M 18,7 L9,13 L1,7 L9,1 Z"></path></marker></defs><defs><marker id="compositionEnd" refX="19" refY="7" markerWidth="20" markerHeight="28" orient="auto"><path d="M 18,7 L9,13 L1,7 L9,1 Z"></path></marker></defs><defs><marker id="aggregationStart" class="extension" refX="0" refY="7" markerWidth="190" markerHeight="240" orient="auto"><path d="M 18,7 L9,13 L1,7 L9,1 Z"></path></marker></defs><defs><marker id="aggregationEnd" refX="19" refY="7" markerWidth="20" markerHeight="28" orient="auto"><path d="M 18,7 L9,13 L1,7 L9,1 Z"></path></marker></defs><defs><marker id="dependencyStart" class="extension" refX="0" refY="7" markerWidth="190" markerHeight="240" orient="auto"><path d="M 5,7 L9,13 L1,7 L9,1 Z"></path></marker></defs><defs><marker id="dependencyEnd" refX="19" refY="7" markerWidth="20" markerHeight="28" orient="auto"><path d="M 18,7 L9,13 L14,7 L9,1 Z"></path></marker></defs><g id="classid-Description-0" class="classGroup" transform="translate(0,0 )"><rect x="0" y="0" width="66" height="31" class=" "></rect><text y="15" x="0"><tspan class="title" x="5">Description</tspan></text><line x1="0" y1="22" y2="22" x2="66"></line><text x="5" y="32" fill="white" class="classText"></text><line x1="0" y1="27" y2="27" x2="66"></line><text x="5" y="42" fill="white" class="classText"></text></g><g id="classid-Factory-1" class="classGroup" transform="translate(68,81 )"><rect x="0" y="0" width="47" height="30" class=" "></rect><text y="15" x="0"><tspan class="title" x="5">Factory</tspan></text><line x1="0" y1="21" y2="21" x2="47"></line><text x="5" y="31" fill="white" class="classText"></text><line x1="0" y1="26" y2="26" x2="47"></line><text x="5" y="41" fill="white" class="classText"></text></g><g id="classid-Entity-2" class="classGroup" transform="translate(190.5,0.5 )"><rect x="0" y="0" width="38" height="30" class=" "></rect><text y="15" x="0"><tspan class="title" x="5">Entity</tspan></text><line x1="0" y1="21" y2="21" x2="38"></line><text x="5" y="31" fill="white" class="classText"></text><line x1="0" y1="26" y2="26" x2="38"></line><text x="5" y="41" fill="white" class="classText"></text></g><g id="classid-Service-3" class="classGroup" transform="translate(66.5,161 )"><rect x="0" y="0" width="48" height="30" class=" "></rect><text y="15" x="0"><tspan class="title" x="5">Service</tspan></text><line x1="0" y1="21" y2="21" x2="48"></line><text x="5" y="31" fill="white" class="classText"></text><line x1="0" y1="26" y2="26" x2="48"></line><text x="5" y="41" fill="white" class="classText"></text></g><g id="classid-ViewAssembler-4" class="classGroup" transform="translate(186,161 )"><rect x="0" y="0" width="87" height="30" class=" "></rect><text y="15" x="0"><tspan class="title" x="5">ViewAssembler</tspan></text><line x1="0" y1="21" y2="21" x2="87"></line><text x="5" y="31" fill="white" class="classText"></text><line x1="0" y1="26" y2="26" x2="87"></line><text x="5" y="41" fill="white" class="classText"></text></g><g id="classid-View-5" class="classGroup" transform="translate(281.25,81 )"><rect x="0" y="0" width="34" height="30" class=" "></rect><text y="15" x="0"><tspan class="title" x="5">View</tspan></text><line x1="0" y1="21" y2="21" x2="34"></line><text x="5" y="31" fill="white" class="classText"></text><line x1="0" y1="26" y2="26" x2="34"></line><text x="5" y="41" fill="white" class="classText"></text></g><g id="classid-Controller-6" class="classGroup" transform="translate(161.5,241 )"><rect x="0" y="0" width="58" height="30" class=" "></rect><text y="15" x="0"><tspan class="title" x="5">Controller</tspan></text><line x1="0" y1="21" y2="21" x2="58"></line><text x="5" y="31" fill="white" class="classText"></text><line x1="0" y1="26" y2="26" x2="58"></line><text x="5" y="41" fill="white" class="classText"></text></g><path d="M25.345679012345677,31L23.288065843621396,35.166666666666664C21.23045267489712,39.333333333333336,17.115226337448558,47.666666666666664,24.224279835390945,56.50424628450106C31.333333333333332,65.34182590233546,49.666666666666664,74.68365180467092,58.833333333333336,79.35456475583864L68,84.02547770700637" id="edge0" class="relation" marker-start="url(#extensionStart)"></path><path d="M198.38888888888889,30.5L195.24074074074073,34.75C192.0925925925926,39,185.7962962962963,47.5,171.89814814814815,56.63636363636363C158,65.77272727272727,136.5,75.54545454545455,125.75,80.43181818181817L115,85.31818181818181" id="edge1" class="relation" marker-start="url(#extensionStart)"></path><path d="M205.7962962962963,30.5L204.7469135802469,34.75C203.69753086419755,39,201.59876543209876,47.5,200.5493827160494,58.416666666666664C199.5,69.33333333333333,199.5,82.66666666666667,199.5,96C199.5,109.33333333333333,199.5,122.66666666666667,185.33333333333334,134.53211009174314C171.16666666666666,146.39755351681958,142.83333333333334,156.79510703363914,128.66666666666666,161.99388379204893L114.5,167.19266055045873" id="edge2" class="relation" marker-start="url(#extensionStart)"></path><path d="M33,31L33,35.166666666666664C33,39.333333333333336,33,47.666666666666664,33,58.5C33,69.33333333333333,33,82.66666666666667,33,96C33,109.33333333333333,33,122.66666666666667,38.989583333333336,133.5C44.979166666666664,144.33333333333334,56.958333333333336,152.66666666666666,62.947916666666664,156.83333333333334L68.9375,161" id="edge3" class="relation" marker-start="url(#extensionStart)"></path><path d="M91.5,111L91.5,115.16666666666667C91.5,119.33333333333333,91.5,127.66666666666667,91.39583333333333,136C91.29166666666667,144.33333333333334,91.08333333333333,152.66666666666666,90.97916666666667,156.83333333333334L90.875,161" id="edge4" class="relation" marker-start="url(#extensionStart)"></path><path d="M213.2037037037037,30.5L214.2530864197531,34.75C215.30246913580245,39,217.40123456790124,47.5,218.4506172839506,58.416666666666664C219.5,69.33333333333333,219.5,82.66666666666667,219.5,96C219.5,109.33333333333333,219.5,122.66666666666667,220.54166666666666,133.5C221.58333333333334,144.33333333333334,223.66666666666666,152.66666666666666,224.70833333333334,156.83333333333334L225.75,161" id="edge5" class="relation" marker-start="url(#extensionStart)"></path><path d="M283.4375,111L279.3229166666667,115.16666666666667C275.2083333333333,119.33333333333333,266.9791666666667,127.66666666666667,259.8177083333333,136C252.65625,144.33333333333334,246.5625,152.66666666666666,243.515625,156.83333333333334L240.46875,161" id="edge6" class="relation" marker-start="url(#extensionStart)"></path><path d="M228.5,24.170422535211266L240.125,29.475352112676052C251.75,34.780281690140846,275,45.39014084507042,286.625,54.86173708920188C298.25,64.33333333333333,298.25,72.66666666666667,298.25,76.83333333333333L298.25,81" id="edge7" class="relation dashed-line" marker-start="url(#extensionStart)"></path><path d="M90.5,191L90.5,195.16666666666666C90.5,199.33333333333334,90.5,207.66666666666666,102.33333333333333,216.5666666666667C114.16666666666667,225.46666666666667,137.83333333333334,234.9333333333333,149.66666666666666,239.66666666666666L161.5,244.4" id="edge8" class="relation" marker-start="url(#extensionStart)"></path><path d="M301.90625,111L302.921875,115.16666666666667C303.9375,119.33333333333333,305.96875,127.66666666666667,306.984375,138.5C308,149.33333333333334,308,162.66666666666666,308,176C308,189.33333333333334,308,202.66666666666666,293.25,214.354609929078C278.5,226.04255319148936,249,236.08510638297875,234.25,241.10638297872342L219.5,246.12765957446808" id="edge9" class="relation" marker-start="url(#extensionStart)"></path><path d="M229.5,191L229.5,195.16666666666666C229.5,199.33333333333334,229.5,207.66666666666666,225.4375,216C221.375,224.33333333333334,213.25,232.66666666666666,209.1875,236.83333333333334L205.125,241" id="edge10" class="relation" marker-start="url(#extensionStart)"></path><path d="M66,26.898720682302773L80.04166666666667,31.748933901918978C94.08333333333333,36.59914712153518,122.16666666666667,46.29957356076759,136.20833333333334,57.81645344705046C150.25,69.33333333333333,150.25,82.66666666666667,150.25,96C150.25,109.33333333333333,150.25,122.66666666666667,150.25,136C150.25,149.33333333333334,150.25,162.66666666666666,150.25,176C150.25,189.33333333333334,150.25,202.66666666666666,154.44270833333334,213.5C158.63541666666666,224.33333333333334,167.02083333333334,232.66666666666666,171.21354166666666,236.83333333333334L175.40625,241" id="edge11" class="relation" marker-start="url(#extensionStart)"></path></svg>
